<svg xmlns="http://www.w3.org/2000/svg" xmlns:xlink="http://www.w3.org/1999/xlink" xmlns:fi="http://pattern.flaticon.com/" x="0" y="0" width="700" height="350" viewBox="0 0 700 350"><rect x="0px" y="0px" width="100%" height="100%" opacity="1" fill="#fffecf"/><defs><g transform="matrix(0.11742211133241653 0 0 0.11742211133241653 77 171)" id="L1_83"><path d="M255.22,105.177c19.535-49.77,61.325-87.79,113.231-87.79c43.705,0,79.625,23.111,108.871,54.44   c38.859,41.622,56.17,137.216-15.863,209.24c-36.546,36.546-205.815,212.524-205.815,212.524S86.384,317.613,49.838,281.066   c-72.033-72.024-55.578-167.618-15.863-209.24c29.581-31.002,65.165-54.44,108.871-54.44   C194.751,17.386,235.685,55.407,255.22,105.177" fill="#d71e00"/><path d="M429.848,94.824c26.006,21.865,39.538,63.103,31.858,97.341c-0.675,2.978-1.395,6.021-2.154,9.091   c-1.17,4.733,1.718,9.518,6.45,10.689c4.733,1.17,9.518-1.718,10.689-6.45c0.787-3.183,1.534-6.339,2.238-9.446   c9.114-40.635-6.622-88.592-37.718-114.736c-16.942-14.251-37.574-20.273-68.03-20.273c-4.875,0-8.828,3.952-8.828,8.828   s3.952,8.828,8.828,8.828C399.8,78.694,416.45,83.554,429.848,94.824z" fill="#b21606"/></g><g transform="matrix(0.11719665676355362 0 0 0.11719665676355362 146.0000003433496 90)" id="L1_84"><path d="M302.728,390.351c16.49,15.934,26.368,25.759,55.905,24.541c43.494-1.783,83.871-25.459,106.364-62.729   c38.78-64.247,17.576-128.53-23.702-166.824L272.705,6.528c-9.507-8.704-24.082-8.704-33.589,0L68.073,185.34   c-40.13,37.226-57.256,99.037-23.729,161.483c21.283,39.645,61.767,66.357,106.726,68.087c29.281,1.121,40.801-8.66,57.759-24.488   c4.458-4.167,11.767-1.033,11.767,5.076l0.009,29.987c0,16.172-4.228,32.071-12.253,46.115l-15.519,27.154   c-3.354,5.888,0.892,13.206,7.671,13.206h110.813c6.78,0,11.034-7.318,7.671-13.206l-15.519-27.154   c-8.024-14.045-12.244-29.943-12.244-46.115v-30.296C291.226,389.213,298.429,386.202,302.728,390.351"/><path d="M427.21,329.362c-8.701,14.419-21.869,26.091-37.482,33.362c-10.397,4.841-21.597,7.606-32.91,8.072   c-4.871,0.201-8.657,4.312-8.457,9.184c0.201,4.871,4.312,8.657,9.184,8.457c13.661-0.563,27.144-3.891,39.635-9.707   c18.759-8.735,34.611-22.785,45.145-40.244c19.021-31.51,20.189-64.061,7.087-94.822c-1.911-4.485-7.096-6.573-11.581-4.662   c-4.485,1.911-6.573,7.096-4.662,11.581C444.131,276.316,443.177,302.911,427.21,329.362z" fill="#2a2d33"/></g><g transform="matrix(0.11718795448541641 0 0 0.11718795448541641 207.9999966525902 169)" id="L1_85"><path d="M419.381,199.229c-26.651-12.378-51.541-12.674-74.177-7.186c18.441-21.827,29.058-50.472,27.396-81.642   C369.438,51,320.017,2.36,260.58,0.087c-66.578-2.542-121.353,50.67-121.353,116.682c0,28.699,10.393,54.937,27.567,75.273   c-22.636-5.488-47.526-5.192-74.177,7.186c-41.023,19.061-69.569,59.401-70.153,104.628   c-0.835,65.204,51.757,118.317,116.763,118.317c31.412,0,59.859-12.459,80.842-32.633v34.403c0,16.501-4.303,32.714-12.495,47.041   l-15.755,27.576c-3.422,5.991,0.907,13.438,7.797,13.438h112.766c6.899,0,11.219-7.446,7.797-13.438l-15.755-27.576   c-8.183-14.327-12.495-30.54-12.495-47.041V389.54c20.992,20.175,49.439,32.633,80.842,32.633   c65.006,0,117.607-53.113,116.763-118.317C488.95,258.629,460.403,218.289,419.381,199.229"/><path d="M423.915,355.877c-13.621,13.805-31.752,21.385-51.142,21.385c-4.961,0-8.982,4.022-8.982,8.982   c0,4.961,4.022,8.982,8.982,8.982c24.196,0,46.934-9.506,63.927-26.729c16.991-17.2,26.197-40.066,25.888-64.288   c-0.063-4.96-4.136-8.93-9.096-8.867c-4.96,0.063-8.93,4.136-8.867,9.096C444.872,323.859,437.529,342.095,423.915,355.877z" fill="#2a2d33"/></g><g transform="matrix(0.1171875 0 0 0.1171875 143 247)" id="L1_86"><path d="M256,0 45.714,256 256,512 466.286,256z" fill="#d71e00"/><path d="M248.872,448.656c-3.162,3.937-2.533,9.692,1.404,12.853c3.937,3.162,9.692,2.533,12.853-1.404   l64-79.698c3.162-3.937,2.533-9.692-1.404-12.853c-3.937-3.162-9.692-2.533-12.853,1.404L248.872,448.656z" fill="#b21606"/></g><g transform="matrix(0.11718658357858658 0 0 0.11718658357858658 216.99999901295485 83)" id="L1_87"><path d="M163.164,493.763V70.535c0-9.743,7.9-17.634,17.634-17.634h170.808l-13.878-39.828  c-2.522-9.408-12.185-14.989-21.593-12.468L18.041,68.525C8.633,71.047,3.051,80.71,5.573,90.118L115.118,498.93  c2.513,9.408,12.185,14.989,21.593,12.468l29.406-7.883C164.257,500.72,163.164,497.37,163.164,493.763" fill="#dae1e5"/><g><path d="M97.872,331.156c15.227,55.928,22.07,81.172,30.323,111.979c1.261,4.7,6.093,7.495,10.801,6.234   c4.7-1.261,7.495-6.093,6.234-10.801c-8.262-30.834-15.113-56.095-30.217-111.591c-15.36-56.404-22.008-80.925-30.208-111.521   c-1.261-4.7-6.093-7.495-10.801-6.234c-4.7,1.261-7.495,6.093-6.234,10.801C75.979,250.663,82.627,275.193,97.872,331.156z" fill="#d71e00"/><path d="M137.197,142.052L84.875,83.047c-4.823-5.44-13.781-3.033-15.236,4.082L53.83,164.395   c-0.979,4.77,2.099,9.426,6.869,10.404s9.426-2.099,10.404-6.869l3.836-18.754c0.503-0.044,0.988,0.044,1.49-0.097l34.07-9.126   c0.335-0.088,0.573-0.317,0.882-0.441l12.617,14.231c3.227,3.642,8.8,3.977,12.45,0.749   C140.098,151.266,140.424,145.694,137.197,142.052z M78.827,130.184l4.55-22.246l15.069,16.991L78.827,130.184z" fill="#d71e00"/></g><path d="M489.402,52.901H180.798c-9.743,0-17.634,7.891-17.634,17.634v423.228  c0,9.743,7.891,17.634,17.634,17.634h308.604c9.743,0,17.634-7.891,17.634-17.634V70.535  C507.036,60.792,499.145,52.901,489.402,52.901" fill="#e6eef4"/><path d="M480.585,88.17c0-4.867-3.95-8.817-8.817-8.817h-158.71c-4.867,0-8.817,3.95-8.817,8.817s3.95,8.817,8.817,8.817h158.71  l-8.817-8.817v263.98c0,4.867,3.95,8.817,8.817,8.817s8.817-3.95,8.817-8.817V88.17z"/><path d="M189.615,476.631c0,4.876,3.959,8.835,8.844,8.817l176.345-0.503c4.867-0.018,8.808-3.977,8.791-8.844  c-0.018-4.867-3.977-8.808-8.844-8.791l-176.345,0.503l8.844,8.817V212.114c0-4.867-3.95-8.817-8.817-8.817s-8.817,3.95-8.817,8.817  L189.615,476.631L189.615,476.631z"/><path d="M357.17,344.161c-0.503-0.326-1.085,0.168-0.864,0.732l14.619,37.429c1.287,2.583-0.591,5.634-3.483,5.634h-65.212  c-2.892,0-4.77-3.051-3.474-5.634l12.177-37.517c0.185-0.564-0.423-1.014-0.908-0.688c-7.345,4.964-15.721,8.694-24.891,8.694  c-28.444,0-53.124-23.886-51.343-52.692c1.005-16.197,11.313-30.093,25.059-38.717c13.79-8.65,25.138-9.337,36.574-6.569  c-7.309-8.659-10.29-19.83-10.29-32.042c0-30.931,28.25-55.267,60.354-48.609c19.125,3.968,34.449,19.627,38.126,38.805  c3.06,15.986,0.397,30.922-8.835,41.847c11.515-2.795,22.449-2.072,36.354,6.763c13.676,8.676,23.948,22.537,24.891,38.708  c1.666,28.727-23.092,52.507-51.466,52.507C375.545,352.811,364.708,349.011,357.17,344.161"/><path d="M189.615,176.342c0,4.867,3.95,8.817,8.817,8.817c4.867,0,8.817-3.95,8.817-8.817V88.17c0-4.867-3.95-8.817-8.817-8.817  c-4.867,0-8.817,3.95-8.817,8.817V176.342z"/><path d="M249.291,93.813c3.121-3.739,2.61-9.302-1.129-12.415c-3.739-3.121-9.302-2.61-12.415,1.129l-44.086,52.903  c-3.121,3.739-2.61,9.302,1.129,12.415c3.739,3.121,9.302,2.61,12.415-1.129L249.291,93.813z"/><path d="M223.403,118.545c-2.698-4.056-8.174-5.149-12.23-2.442c-4.056,2.698-5.149,8.174-2.442,12.23L244,181.236  c2.698,4.056,8.174,5.149,12.23,2.442c4.056-2.698,5.149-8.174,2.442-12.23L223.403,118.545z"/><path d="M480.585,387.956c0-4.867-3.95-8.817-8.817-8.817s-8.817,3.95-8.817,8.817v88.172c0,4.867,3.95,8.817,8.817,8.817  s8.817-3.95,8.817-8.817V387.956z"/><path d="M420.909,470.486c-3.121,3.738-2.61,9.302,1.129,12.415c3.738,3.121,9.302,2.61,12.415-1.129l44.086-52.904  c3.121-3.738,2.61-9.302-1.129-12.415c-3.739-3.121-9.302-2.61-12.415,1.129L420.909,470.486z"/><path d="M446.797,445.745c2.698,4.056,8.174,5.149,12.23,2.442c4.056-2.698,5.149-8.174,2.442-12.23L426.2,383.054  c-2.698-4.056-8.174-5.149-12.23-2.442c-4.056,2.698-5.149,8.174-2.442,12.23L446.797,445.745z"/></g><g transform="matrix(0.1171875 0 0 0.1171875 207 -2)" id="L1_88"><path d="M423.724,0H88.276c-9.754,0-17.655,7.901-17.655,17.655v476.69c0,9.754,7.901,17.655,17.655,17.655   h335.448c9.754,0,17.655-7.901,17.655-17.655V17.655C441.379,7.901,433.479,0,423.724,0" fill="#e6eef4"/><g><path d="M414.897,35.311c0-4.875-3.952-8.828-8.828-8.828H203.034c-4.875,0-8.828,3.952-8.828,8.828s3.952,8.828,8.828,8.828    h203.034l-8.828-8.828v300.138c0,4.875,3.952,8.828,8.828,8.828s8.828-3.952,8.828-8.828V35.311z"/><path d="M97.103,476.69c0,4.875,3.952,8.828,8.828,8.828h203.034c4.875,0,8.828-3.952,8.828-8.828s-3.952-8.828-8.828-8.828    H105.931l8.828,8.828V176.552c0-4.875-3.952-8.828-8.828-8.828c-4.875,0-8.828,3.952-8.828,8.828V476.69z"/><path d="M282.482,326.621L282.482,326.621c0,11.608,2.701,23.058,7.892,33.448l6.568,13.127c1.465,2.94-0.662,6.391-3.946,6.391    h-73.993c-3.284,0-5.411-3.452-3.946-6.391l6.568-13.127c5.191-10.39,7.892-21.839,7.892-33.448    c-8.722,6.321-18.803,9.578-29.917,9.578c-32.274,0-60.275-27.101-58.253-59.78c1.13-18.379,12.835-34.145,28.425-43.926    c15.651-9.825,30.164-10.611,43.14-7.459c-8.298-9.825-13.312-22.502-13.312-36.361c0-34.834,31.576-62.296,67.663-55.314    c22.59,4.361,40.536,22.925,44.332,45.612c2.948,17.602-2.304,33.986-12.5,46.062c13.074-3.169,27.701-2.348,43.476,7.671    c15.51,9.852,27.171,25.574,28.239,43.917c1.889,32.591-26.2,59.577-58.403,59.577    C301.444,336.199,291.045,332.809,282.482,326.621"/><path d="M149.308,31.725c-3.107-6.99-13.027-6.99-16.134,0l-35.31,79.448c-1.98,4.455,0.026,9.672,4.482,11.652    c4.455,1.98,9.672-0.026,11.652-4.482l35.31-79.448h-16.134l35.31,79.448c1.98,4.455,7.197,6.462,11.652,4.482    c4.455-1.98,6.462-7.197,4.482-11.652L149.308,31.725z"/><path d="M158.897,97.103c4.875,0,8.828-3.952,8.828-8.828c0-4.875-3.952-8.828-8.828-8.828h-35.31    c-4.875,0-8.828,3.952-8.828,8.828c0,4.875,3.952,8.828,8.828,8.828H158.897z"/><path d="M362.692,480.275c3.107,6.99,13.027,6.99,16.133,0l35.31-79.448c1.98-4.455-0.026-9.672-4.482-11.652    c-4.455-1.98-9.672,0.026-11.652,4.482l-35.31,79.448h16.133l-35.31-79.448c-1.98-4.455-7.197-6.462-11.652-4.482    c-4.455,1.98-6.462,7.197-4.482,11.652L362.692,480.275z"/><path d="M353.103,414.897c-4.875,0-8.828,3.952-8.828,8.828c0,4.875,3.952,8.828,8.828,8.828h35.31    c4.875,0,8.828-3.952,8.828-8.828c0-4.875-3.952-8.828-8.828-8.828H353.103z"/></g></g><g transform="matrix(0.1171875 0 0 0.1171875 2 209)" id="L1_89"><path d="M423.724,0H88.276c-9.754,0-17.655,7.901-17.655,17.655v476.69c0,9.754,7.901,17.655,17.655,17.655   h335.448c9.754,0,17.655-7.901,17.655-17.655V17.655C441.379,7.901,433.479,0,423.724,0" fill="#e6eef4"/><g><path d="M282.483,370.759c0,21.91,6.038,43.82,8.13,50.732c0.344,1.139-0.521,2.233-1.704,2.233h-65.827    c-1.183,0-2.039-1.095-1.704-2.225c2.074-6.947,8.139-29.096,8.139-50.741c-8.73,6.321-18.803,9.578-29.917,9.578    c-32.274,0-60.275-27.101-58.253-59.78c1.13-18.379,12.835-34.145,28.425-43.926c15.651-9.825,30.164-10.611,43.14-7.459    c-8.298-9.825-13.312-22.502-13.312-36.361c0-34.834,31.576-62.296,67.663-55.314c22.59,4.361,40.536,22.925,44.332,45.612    c2.948,17.602-2.304,33.986-12.5,46.062c13.065-3.169,27.692-2.348,43.467,7.662c15.519,9.852,27.18,25.582,28.248,43.926    c1.889,32.591-26.2,59.577-58.403,59.577C301.444,380.337,291.046,376.947,282.483,370.759"/><path d="M158.897,44.138c4.875,0,8.828-3.952,8.828-8.828s-3.952-8.828-8.828-8.828h-52.966c-4.875,0-8.828,3.952-8.828,8.828    s3.952,8.828,8.828,8.828H158.897z"/><path d="M114.759,35.31c0-4.875-3.952-8.828-8.828-8.828c-4.875,0-8.828,3.952-8.828,8.828v8.828c0,4.875,3.952,8.828,8.828,8.828    c4.875,0,8.828-3.952,8.828-8.828V35.31z"/><path d="M114.881,122.122c-0.809,4.808,2.433,9.361,7.241,10.17s9.361-2.433,10.17-7.241    c6.146-36.533,13.104-53.566,33.951-84.845c2.704-4.057,1.607-9.538-2.45-12.241s-9.538-1.607-12.241,2.45    C129.358,63.714,121.451,83.07,114.881,122.122z"/></g></g><g transform="matrix(0.1171875 0 0 0.1171875 93 19)" id="L1_90"><path d="M423.724,0H88.276c-9.754,0-17.655,7.901-17.655,17.655v476.69c0,9.754,7.901,17.655,17.655,17.655   h335.448c9.754,0,17.655-7.901,17.655-17.655V17.655C441.379,7.901,433.479,0,423.724,0" fill="#e6eef4"/><g><path d="M150.069,44.138c4.875,0,8.828-3.952,8.828-8.828s-3.952-8.828-8.828-8.828h-44.138    c-4.875,0-8.828,3.952-8.828,8.828s3.952,8.828,8.828,8.828H150.069z" fill="#d71e00"/><path d="M97.103,79.448c0,4.875,3.952,8.828,8.828,8.828c4.875,0,8.828-3.952,8.828-8.828V35.31    c0-4.875-3.952-8.828-8.828-8.828c-4.875,0-8.828,3.952-8.828,8.828V79.448z" fill="#d71e00"/><path d="M126.535,134.376c20.041,0,36.29-16.249,36.29-36.29s-16.249-36.29-36.29-36.29    c-10.545,0-20.385,4.533-27.223,12.283c-3.226,3.656-2.877,9.234,0.779,12.46c3.656,3.226,9.234,2.877,12.46-0.779    c3.519-3.988,8.556-6.308,13.984-6.308c10.29,0,18.635,8.345,18.635,18.635s-8.345,18.635-18.635,18.635    c-5.423,0-10.461-2.324-13.984-6.317c-3.226-3.656-8.804-4.004-12.46-0.779c-3.656,3.226-4.004,8.804-0.779,12.46    C106.151,129.836,115.992,134.376,126.535,134.376z" fill="#d71e00"/><path d="M256,238.345c9.507-24.214,29.625-44.138,54.881-44.138c21.257,0,40.201,9.993,52.966,26.483    c16.013,20.692,27.33,66.754-7.715,101.8C338.353,340.268,256,423.724,256,423.724s-82.353-83.456-100.131-101.235    c-35.046-35.046-23.729-81.108-7.715-101.8c12.765-16.49,31.709-26.483,52.966-26.483    C226.375,194.207,246.493,214.131,256,238.345" fill="#d71e00"/></g></g><g transform="matrix(0.1171875 0 0 0.1171875 340 60)" id="L1_91"><path d="M423.724,0H88.276c-9.754,0-17.655,7.901-17.655,17.655v476.69c0,9.754,7.901,17.655,17.655,17.655   h335.448c9.754,0,17.655-7.901,17.655-17.655V17.655C441.379,7.901,433.479,0,423.724,0" fill="#e6eef4"/><g><path d="M256,238.345c9.507-24.214,29.625-44.138,54.881-44.138c21.257,0,40.201,9.993,52.966,26.483    c16.013,20.692,27.33,66.754-7.715,101.8C338.353,340.268,256,423.724,256,423.724s-82.353-83.456-100.131-101.235    c-35.046-35.046-23.729-81.108-7.715-101.8c12.765-16.49,31.709-26.483,52.966-26.483    C226.375,194.207,246.493,214.131,256,238.345" fill="#d71e00"/><path d="M132.414,141.241c19.503,0,35.31-15.808,35.31-35.31s-15.808-35.31-35.31-35.31    s-35.31,15.808-35.31,35.31S112.911,141.241,132.414,141.241z M132.414,88.276c9.752,0,17.655,7.903,17.655,17.655    s-7.903,17.655-17.655,17.655s-17.655-7.903-17.655-17.655S122.662,88.276,132.414,88.276z" fill="#d71e00"/><path d="M158.897,44.138c4.875,0,8.828-3.952,8.828-8.828s-3.952-8.828-8.828-8.828    c-36.002,0-61.793,32.744-61.793,79.448c0,4.875,3.952,8.828,8.828,8.828c4.875,0,8.828-3.952,8.828-8.828    C114.759,68.178,133.694,44.138,158.897,44.138z" fill="#d71e00"/></g></g><g transform="matrix(0.1171875 0 0 0.1171875 271 171)" id="L1_92"><path d="M423.724,0H88.276c-9.754,0-17.655,7.901-17.655,17.655v476.69c0,9.754,7.901,17.655,17.655,17.655   h335.448c9.754,0,17.655-7.901,17.655-17.655V17.655C441.379,7.901,433.479,0,423.724,0" fill="#e6eef4"/><g><path d="M406.069,485.517c4.875,0,8.828-3.952,8.828-8.828V35.31c0-4.875-3.952-8.828-8.828-8.828H105.931    c-4.875,0-8.828,3.952-8.828,8.828V476.69c0,4.875,3.952,8.828,8.828,8.828H406.069z M114.759,476.69V35.31l-8.828,8.828h300.138    l-8.828-8.828V476.69l8.828-8.828H105.931L114.759,476.69z" fill="#d71e00"/><path d="M99.691,104.376c-3.447,3.447-3.447,9.037,0,12.484c3.447,3.447,9.037,3.447,12.484,0    l75.308-75.308c3.447-3.447,3.447-9.037,0-12.484s-9.037-3.447-12.484,0L99.691,104.376z" fill="#d71e00"/><path d="M262.383,41.557c3.447-3.447,3.447-9.037,0-12.484c-3.447-3.447-9.037-3.447-12.484,0    l-150.21,150.21c-3.447,3.447-3.447,9.037,0,12.484c3.447,3.447,9.037,3.447,12.484,0L262.383,41.557z" fill="#d71e00"/><path d="M337.294,41.551c3.447-3.447,3.447-9.037,0-12.484s-9.037-3.447-12.484,0L99.689,254.188    c-3.447,3.447-3.447,9.037,0,12.484s9.037,3.447,12.484,0L337.294,41.551z" fill="#d71e00"/><path d="M412.196,41.553c3.447-3.447,3.447-9.037,0-12.484c-3.447-3.447-9.037-3.447-12.484,0    L99.689,329.092c-3.447,3.447-3.447,9.037,0,12.484s9.037,3.447,12.484,0L412.196,41.553z" fill="#d71e00"/><path d="M412.311,116.342c3.447-3.447,3.447-9.037,0-12.484c-3.447-3.447-9.037-3.447-12.484,0    L99.689,403.996c-3.447,3.447-3.447,9.037,0,12.484c3.447,3.447,9.037,3.447,12.484,0L412.311,116.342z" fill="#d71e00"/><path d="M412.315,191.244c3.447-3.447,3.447-9.037,0-12.484s-9.037-3.447-12.484,0L114.797,463.793    c-3.447,3.447-3.447,9.037,0,12.484c3.447,3.447,9.037,3.447,12.484,0L412.315,191.244z" fill="#d71e00"/><path d="M183.048,470.447c-3.447,3.447-3.447,9.037,0,12.484s9.037,3.447,12.484,0l216.779-216.779    c3.447-3.447,3.447-9.037,0-12.484c-3.447-3.447-9.037-3.447-12.484,0L183.048,470.447z" fill="#d71e00"/><path d="M257.95,470.449c-3.447,3.447-3.447,9.037,0,12.484s9.037,3.447,12.484,0l141.877-141.877    c3.447-3.447,3.447-9.037,0-12.484c-3.447-3.447-9.037-3.447-12.484,0L257.95,470.449z" fill="#d71e00"/><path d="M412.315,415.957c3.447-3.447,3.447-9.037,0-12.484c-3.447-3.447-9.037-3.447-12.484,0    l-66.975,66.975c-3.447,3.447-3.447,9.037,0,12.484c3.447,3.447,9.037,3.447,12.484,0L412.315,415.957z" fill="#d71e00"/></g></g><g transform="matrix(0.1171875 0 0 0.1171875 83 97)" id="L1_93"><path d="M423.724,0H88.276c-9.754,0-17.655,7.901-17.655,17.655v476.69c0,9.754,7.901,17.655,17.655,17.655   h335.448c9.754,0,17.655-7.901,17.655-17.655V17.655C441.379,7.901,433.479,0,423.724,0" fill="#e6eef4"/><g><path d="M256,176.552 150.069,308.966 256,441.379 361.931,308.966z" fill="#d71e00"/><path d="M97.103,141.241c0,4.875,3.952,8.828,8.828,8.828c4.875,0,8.828-3.952,8.828-8.828V35.31    c0-4.875-3.952-8.828-8.828-8.828c-4.875,0-8.828,3.952-8.828,8.828V141.241z" fill="#d71e00"/><path d="M165.599,41.055c3.173-3.702,2.744-9.274-0.957-12.447s-9.274-2.744-12.447,0.957L99.229,91.359    c-3.173,3.702-2.744,9.274,0.957,12.447c3.702,3.173,9.274,2.744,12.447-0.957L165.599,41.055z" fill="#d71e00"/><path d="M130.77,74.317c-2.834-3.967-8.347-4.886-12.314-2.052c-3.967,2.834-4.886,8.347-2.052,12.314    l44.138,61.793c2.834,3.967,8.347,4.886,12.314,2.052c3.967-2.834,4.886-8.347,2.052-12.314L130.77,74.317z" fill="#d71e00"/></g></g><g transform="matrix(0.1171875 0 0 0.1171875 85 292)" id="L1_94"><path d="M423.724,0H88.276c-9.754,0-17.655,7.901-17.655,17.655v476.69c0,9.754,7.901,17.655,17.655,17.655   h335.448c9.754,0,17.655-7.901,17.655-17.655V17.655C441.379,7.901,433.479,0,423.724,0" fill="#e6eef4"/><g><path d="M256,176.552 150.069,308.966 256,441.379 361.931,308.966z" fill="#d71e00"/><path d="M123.587,97.103c19.503,0,35.31-15.808,35.31-35.31s-15.808-35.31-35.31-35.31    c-4.058,0-8.024,0.686-11.778,2.017c-5.252,1.849-9.826,5.02-14.202,9.396c-3.447,3.447-3.447,9.037,0,12.484    c3.447,3.447,9.037,3.447,12.484,0c2.652-2.652,5.113-4.358,7.6-5.234c1.883-0.668,3.854-1.008,5.896-1.008    c9.752,0,17.655,7.903,17.655,17.655s-7.903,17.655-17.655,17.655h-8.801c-4.875,0-8.828,3.952-8.828,8.828    c0,4.875,3.952,8.828,8.828,8.828H123.587z" fill="#d71e00"/><path d="M123.589,150.067c19.503,0,35.31-15.808,35.31-35.31s-15.808-35.31-35.31-35.31h-8.828    c-4.875,0-8.828,3.952-8.828,8.828c0,4.875,3.952,8.828,8.828,8.828h8.828c9.752,0,17.655,7.903,17.655,17.655    s-7.903,17.655-17.655,17.655c-4.808,0-9.446-2.183-13.47-6.207c-3.447-3.447-9.037-3.447-12.484,0    c-3.447,3.447-3.447,9.037,0,12.484C104.785,145.84,113.768,150.067,123.589,150.067z" fill="#d71e00"/></g></g><g transform="matrix(0.1171875 0 0 0.1171875 291 78)" id="L1_95"><path d="M423.724,0H88.276c-9.754,0-17.655,7.901-17.655,17.655v476.69c0,9.754,7.901,17.655,17.655,17.655   h335.448c9.754,0,17.655-7.901,17.655-17.655V17.655C441.379,7.901,433.479,0,423.724,0" fill="#e6eef4"/><g><path d="M282.483,361.931L282.483,361.931c0,0,44.323,44.323,79.448-8.828c18.282-27.666,5.888-54.616-13.603-73.242    l-83.906-82.635c-4.723-4.025-11.979-4.025-16.711,0l-85.124,82.635c-16.746,17.523-31.011,45.506-12.518,73.242    c35.31,52.966,79.448,8.828,79.448,8.828c0,22.625-6.444,51.703-8.324,59.683c-0.256,1.112,0.6,2.11,1.739,2.11h66.145    c1.139,0,1.986-0.997,1.73-2.101C288.936,413.617,282.483,384.415,282.483,361.931"/><path d="M123.587,97.103c19.503,0,35.31-15.808,35.31-35.31s-15.808-35.31-35.31-35.31c-4.058,0-8.024,0.686-11.778,2.017    c-5.252,1.849-9.826,5.02-14.202,9.396c-3.447,3.447-3.447,9.037,0,12.484c3.447,3.447,9.037,3.447,12.484,0    c2.652-2.652,5.113-4.358,7.6-5.234c1.883-0.668,3.854-1.008,5.896-1.008c9.752,0,17.655,7.903,17.655,17.655    s-7.903,17.655-17.655,17.655h-8.801c-4.875,0-8.828,3.952-8.828,8.828c0,4.875,3.952,8.828,8.828,8.828H123.587z"/><path d="M123.589,150.067c19.503,0,35.31-15.808,35.31-35.31s-15.808-35.31-35.31-35.31h-8.828c-4.875,0-8.828,3.952-8.828,8.828    c0,4.875,3.952,8.828,8.828,8.828h8.828c9.752,0,17.655,7.903,17.655,17.655s-7.903,17.655-17.655,17.655    c-4.808,0-9.446-2.183-13.47-6.207c-3.447-3.447-9.037-3.447-12.484,0c-3.447,3.447-3.447,9.037,0,12.484    C104.785,145.84,113.768,150.067,123.589,150.067z"/></g></g><g transform="matrix(0.1171875 0 0 0.1171875 273 270)" id="L1_96"><path d="M423.724,0H88.276c-9.754,0-17.655,7.901-17.655,17.655v476.69c0,9.754,7.901,17.655,17.655,17.655   h335.448c9.754,0,17.655-7.901,17.655-17.655V17.655C441.379,7.901,433.479,0,423.724,0" fill="#e6eef4"/><g><path d="M282.483,361.931L282.483,361.931c0,0,44.323,44.323,79.448-8.828c18.282-27.666,5.888-54.616-13.603-73.242    l-83.906-82.635c-4.723-4.025-11.979-4.025-16.711,0l-85.124,82.635c-16.746,17.523-31.011,45.506-12.518,73.242    c35.31,52.966,79.448,8.828,79.448,8.828c0,22.625-6.444,51.703-8.324,59.683c-0.256,1.112,0.6,2.11,1.739,2.11h66.145    c1.139,0,1.986-0.997,1.73-2.101C288.936,413.617,282.483,384.415,282.483,361.931"/><path d="M132.417,150.068c19.441,0,35.31-15.869,35.31-35.31V61.792c0-4.875-3.952-8.828-8.828-8.828    c-4.875,0-8.828,3.952-8.828,8.828v52.966c0,9.69-7.965,17.655-17.655,17.655c-7.484,0-14.148-4.792-16.643-11.772    c-1.641-4.591-6.693-6.982-11.284-5.341c-4.591,1.641-6.982,6.693-5.341,11.284C104.133,140.525,117.405,150.068,132.417,150.068z    "/><path d="M132.414,26.483c-19.503,0-35.31,15.808-35.31,35.31s15.808,35.31,35.31,35.31s35.31-15.808,35.31-35.31    S151.916,26.483,132.414,26.483z M132.414,79.448c-9.752,0-17.655-7.903-17.655-17.655s7.903-17.655,17.655-17.655    s17.655,7.903,17.655,17.655S142.166,79.448,132.414,79.448z"/></g></g><g transform="matrix(0.1171875 0 0 0.1171875 145 165)" id="L1_97"><path d="M423.724,0H88.276c-9.754,0-17.655,7.901-17.655,17.655v476.69c0,9.754,7.901,17.655,17.655,17.655   h335.448c9.754,0,17.655-7.901,17.655-17.655V17.655C441.379,7.901,433.479,0,423.724,0" fill="#e6eef4"/><g><path d="M282.483,361.931L282.483,361.931c0,0,44.323,44.323,79.448-8.828c18.282-27.666,5.888-54.616-13.603-73.242    l-83.906-82.635c-4.723-4.025-11.979-4.025-16.711,0l-85.124,82.635c-16.746,17.523-31.011,45.506-12.518,73.242    c35.31,52.966,79.448,8.828,79.448,8.828l0,0c0,22.625-6.444,51.703-8.324,59.683c-0.256,1.112,0.6,2.11,1.739,2.11h66.145    c1.139,0,1.986-0.997,1.73-2.101C288.936,413.617,282.483,384.415,282.483,361.931"/><path d="M150.069,141.241l8.828-8.828h-52.966c-4.875,0-8.828,3.952-8.828,8.828s3.952,8.828,8.828,8.828h52.966    c4.875,0,8.828-3.952,8.828-8.828v-8.828c0-4.875-3.952-8.828-8.828-8.828s-8.828,3.952-8.828,8.828V141.241z"/><path d="M155.813,81.484l2.335-2.758l0.608-0.807c14.226-21.339-0.114-51.01-25.754-51.434l-0.588-0.001    c-19.503,0-35.31,15.808-35.31,35.31c0,4.875,3.952,8.828,8.828,8.828c4.875,0,8.828-3.952,8.828-8.828    c0-9.752,7.903-17.655,17.655-17.655h0.441c11.188,0.187,17.866,14.003,11.211,23.987l7.345,4.897l-6.737-5.704l-2.339,2.763    c-17.382,20.563-32.248,43.121-44.298,67.212c-2.181,4.36-0.414,9.663,3.946,11.844c4.36,2.181,9.663,0.414,11.844-3.946    C125.249,122.353,139.341,100.97,155.813,81.484z"/></g></g><g transform="matrix(0.1171875 0 0 0.1171875 -8 306)" id="L1_98"><path d="M423.724,0H88.276c-9.754,0-17.655,7.901-17.655,17.655v476.69c0,9.754,7.901,17.655,17.655,17.655   h335.448c9.754,0,17.655-7.901,17.655-17.655V17.655C441.379,7.901,433.479,0,423.724,0" fill="#e6eef4"/><g><path d="M256,176.552 150.069,308.966 256,441.379 361.931,308.966z" fill="#d71e00"/><path d="M97.103,61.793v52.966c0,19.441,15.869,35.31,35.31,35.31s35.31-15.869,35.31-35.31V61.793    c0-19.441-15.869-35.31-35.31-35.31S97.103,42.352,97.103,61.793z M150.069,61.793v52.966c0,9.69-7.965,17.655-17.655,17.655    c-9.69,0-17.655-7.965-17.655-17.655V61.793c0-9.69,7.965-17.655,17.655-17.655C142.104,44.138,150.069,52.103,150.069,61.793z" fill="#d71e00"/><path d="M162.428,148.303c3.9,2.925,9.433,2.135,12.359-1.766c2.925-3.9,2.135-9.433-1.766-12.359    l-35.31-26.483c-3.9-2.925-9.433-2.135-12.359,1.766c-2.925,3.9-2.135,9.433,1.766,12.359L162.428,148.303z" fill="#d71e00"/></g></g><g transform="matrix(0.1171875 0 0 0.1171875 207 263)" id="L1_99"><path d="M423.724,0H88.276c-9.754,0-17.655,7.901-17.655,17.655v476.69c0,9.754,7.901,17.655,17.655,17.655   h335.448c9.754,0,17.655-7.901,17.655-17.655V17.655C441.379,7.901,433.479,0,423.724,0" fill="#e6eef4"/><g><path d="M282.482,370.759c0,21.91,6.047,43.82,8.13,50.732c0.344,1.139-0.521,2.233-1.704,2.233h-65.827    c-1.183,0-2.039-1.095-1.704-2.225c2.074-6.947,8.139-29.096,8.139-50.741c-8.722,6.321-18.803,9.578-29.917,9.578    c-32.274,0-60.275-27.101-58.253-59.78c1.13-18.379,12.835-34.145,28.425-43.926c15.651-9.825,30.164-10.611,43.14-7.459    c-8.298-9.825-13.312-22.502-13.312-36.361c0-34.834,31.576-62.296,67.663-55.314c22.59,4.361,40.545,22.925,44.332,45.612    c2.948,17.602-2.304,33.986-12.5,46.062c13.065-3.169,27.692-2.348,43.467,7.662c15.519,9.852,27.18,25.582,28.248,43.926    c1.889,32.591-26.2,59.577-58.403,59.577C301.444,380.337,291.045,376.947,282.482,370.759"/><path d="M150.069,44.138c4.875,0,8.828-3.952,8.828-8.828s-3.952-8.828-8.828-8.828h-44.138c-4.875,0-8.828,3.952-8.828,8.828    s3.952,8.828,8.828,8.828H150.069z"/><path d="M97.103,79.448c0,4.875,3.952,8.828,8.828,8.828c4.875,0,8.828-3.952,8.828-8.828V35.31c0-4.875-3.952-8.828-8.828-8.828    c-4.875,0-8.828,3.952-8.828,8.828V79.448z"/><path d="M126.535,134.376c20.041,0,36.29-16.249,36.29-36.29s-16.249-36.29-36.29-36.29c-10.545,0-20.385,4.533-27.223,12.283    c-3.226,3.656-2.877,9.234,0.779,12.46c3.656,3.226,9.234,2.877,12.46-0.779c3.519-3.988,8.556-6.308,13.984-6.308    c10.29,0,18.635,8.345,18.635,18.635s-8.345,18.635-18.635,18.635c-5.428,0-10.459-2.322-13.984-6.317    c-3.226-3.656-8.804-4.004-12.46-0.779c-3.656,3.226-4.004,8.804-0.779,12.46C106.153,129.839,115.986,134.376,126.535,134.376z"/></g></g><g transform="matrix(0.1171875 0 0 0.1171875 19 131)" id="L1_100"><path d="M423.724,0H88.276c-9.754,0-17.655,7.901-17.655,17.655v476.69c0,9.754,7.901,17.655,17.655,17.655   h335.448c9.754,0,17.655-7.901,17.655-17.655V17.655C441.379,7.901,433.479,0,423.724,0" fill="#e6eef4"/><g><path d="M256,176.552 150.069,308.966 256,441.379 361.931,308.966z" fill="#d71e00"/><path d="M132.417,150.068c19.441,0,35.31-15.869,35.31-35.31V61.792c0-4.875-3.952-8.828-8.828-8.828    c-4.875,0-8.828,3.952-8.828,8.828v52.966c0,9.69-7.965,17.655-17.655,17.655c-7.484,0-14.148-4.792-16.643-11.772    c-1.641-4.591-6.693-6.982-11.284-5.341c-4.591,1.641-6.982,6.693-5.341,11.284C104.133,140.525,117.405,150.068,132.417,150.068z    " fill="#d71e00"/><path d="M132.414,26.483c-19.503,0-35.31,15.808-35.31,35.31s15.808,35.31,35.31,35.31    s35.31-15.808,35.31-35.31S151.916,26.483,132.414,26.483z M132.414,79.448c-9.752,0-17.655-7.903-17.655-17.655    s7.903-17.655,17.655-17.655s17.655,7.903,17.655,17.655S142.166,79.448,132.414,79.448z" fill="#d71e00"/></g></g></defs><g fi:class="KUsePattern"><pattern id="pattern_L1_83" width="350" height="350" patternUnits="userSpaceOnUse"><use xlink:href="#L1_83" x="-350" y="-350"/><use xlink:href="#L1_83" x="0" y="-350"/><use xlink:href="#L1_83" x="350" y="-350"/><use xlink:href="#L1_83" x="-350" y="0"/><use xlink:href="#L1_83" x="0" y="0"/><use xlink:href="#L1_83" x="350" y="0"/><use xlink:href="#L1_83" x="-350" y="350"/><use xlink:href="#L1_83" x="0" y="350"/><use xlink:href="#L1_83" x="350" y="350"/></pattern><rect x="0" y="0" width="100%" height="100%" fill="url(#pattern_L1_83)"/></g><g fi:class="KUsePattern"><pattern id="pattern_L1_84" width="350" height="350" patternUnits="userSpaceOnUse"><use xlink:href="#L1_84" x="-350" y="-350"/><use xlink:href="#L1_84" x="0" y="-350"/><use xlink:href="#L1_84" x="350" y="-350"/><use xlink:href="#L1_84" x="-350" y="0"/><use xlink:href="#L1_84" x="0" y="0"/><use xlink:href="#L1_84" x="350" y="0"/><use xlink:href="#L1_84" x="-350" y="350"/><use xlink:href="#L1_84" x="0" y="350"/><use xlink:href="#L1_84" x="350" y="350"/></pattern><rect x="0" y="0" width="100%" height="100%" fill="url(#pattern_L1_84)"/></g><g fi:class="KUsePattern"><pattern id="pattern_L1_85" width="350" height="350" patternUnits="userSpaceOnUse"><use xlink:href="#L1_85" x="-350" y="-350"/><use xlink:href="#L1_85" x="0" y="-350"/><use xlink:href="#L1_85" x="350" y="-350"/><use xlink:href="#L1_85" x="-350" y="0"/><use xlink:href="#L1_85" x="0" y="0"/><use xlink:href="#L1_85" x="350" y="0"/><use xlink:href="#L1_85" x="-350" y="350"/><use xlink:href="#L1_85" x="0" y="350"/><use xlink:href="#L1_85" x="350" y="350"/></pattern><rect x="0" y="0" width="100%" height="100%" fill="url(#pattern_L1_85)"/></g><g fi:class="KUsePattern"><pattern id="pattern_L1_86" width="350" height="350" patternUnits="userSpaceOnUse"><use xlink:href="#L1_86" x="-350" y="-350"/><use xlink:href="#L1_86" x="0" y="-350"/><use xlink:href="#L1_86" x="350" y="-350"/><use xlink:href="#L1_86" x="-350" y="0"/><use xlink:href="#L1_86" x="0" y="0"/><use xlink:href="#L1_86" x="350" y="0"/><use xlink:href="#L1_86" x="-350" y="350"/><use xlink:href="#L1_86" x="0" y="350"/><use xlink:href="#L1_86" x="350" y="350"/></pattern><rect x="0" y="0" width="100%" height="100%" fill="url(#pattern_L1_86)"/></g><g fi:class="KUsePattern"><pattern id="pattern_L1_87" width="350" height="350" patternUnits="userSpaceOnUse"><use xlink:href="#L1_87" x="-350" y="-350"/><use xlink:href="#L1_87" x="0" y="-350"/><use xlink:href="#L1_87" x="350" y="-350"/><use xlink:href="#L1_87" x="-350" y="0"/><use xlink:href="#L1_87" x="0" y="0"/><use xlink:href="#L1_87" x="350" y="0"/><use xlink:href="#L1_87" x="-350" y="350"/><use xlink:href="#L1_87" x="0" y="350"/><use xlink:href="#L1_87" x="350" y="350"/></pattern><rect x="0" y="0" width="100%" height="100%" fill="url(#pattern_L1_87)"/></g><g fi:class="KUsePattern"><pattern id="pattern_L1_88" width="350" height="350" patternUnits="userSpaceOnUse"><use xlink:href="#L1_88" x="-350" y="-350"/><use xlink:href="#L1_88" x="0" y="-350"/><use xlink:href="#L1_88" x="350" y="-350"/><use xlink:href="#L1_88" x="-350" y="0"/><use xlink:href="#L1_88" x="0" y="0"/><use xlink:href="#L1_88" x="350" y="0"/><use xlink:href="#L1_88" x="-350" y="350"/><use xlink:href="#L1_88" x="0" y="350"/><use xlink:href="#L1_88" x="350" y="350"/></pattern><rect x="0" y="0" width="100%" height="100%" fill="url(#pattern_L1_88)"/></g><g fi:class="KUsePattern"><pattern id="pattern_L1_89" width="350" height="350" patternUnits="userSpaceOnUse"><use xlink:href="#L1_89" x="-350" y="-350"/><use xlink:href="#L1_89" x="0" y="-350"/><use xlink:href="#L1_89" x="350" y="-350"/><use xlink:href="#L1_89" x="-350" y="0"/><use xlink:href="#L1_89" x="0" y="0"/><use xlink:href="#L1_89" x="350" y="0"/><use xlink:href="#L1_89" x="-350" y="350"/><use xlink:href="#L1_89" x="0" y="350"/><use xlink:href="#L1_89" x="350" y="350"/></pattern><rect x="0" y="0" width="100%" height="100%" fill="url(#pattern_L1_89)"/></g><g fi:class="KUsePattern"><pattern id="pattern_L1_90" width="350" height="350" patternUnits="userSpaceOnUse"><use xlink:href="#L1_90" x="-350" y="-350"/><use xlink:href="#L1_90" x="0" y="-350"/><use xlink:href="#L1_90" x="350" y="-350"/><use xlink:href="#L1_90" x="-350" y="0"/><use xlink:href="#L1_90" x="0" y="0"/><use xlink:href="#L1_90" x="350" y="0"/><use xlink:href="#L1_90" x="-350" y="350"/><use xlink:href="#L1_90" x="0" y="350"/><use xlink:href="#L1_90" x="350" y="350"/></pattern><rect x="0" y="0" width="100%" height="100%" fill="url(#pattern_L1_90)"/></g><g fi:class="KUsePattern"><pattern id="pattern_L1_91" width="350" height="350" patternUnits="userSpaceOnUse"><use xlink:href="#L1_91" x="-350" y="-350"/><use xlink:href="#L1_91" x="0" y="-350"/><use xlink:href="#L1_91" x="350" y="-350"/><use xlink:href="#L1_91" x="-350" y="0"/><use xlink:href="#L1_91" x="0" y="0"/><use xlink:href="#L1_91" x="350" y="0"/><use xlink:href="#L1_91" x="-350" y="350"/><use xlink:href="#L1_91" x="0" y="350"/><use xlink:href="#L1_91" x="350" y="350"/></pattern><rect x="0" y="0" width="100%" height="100%" fill="url(#pattern_L1_91)"/></g><g fi:class="KUsePattern"><pattern id="pattern_L1_92" width="350" height="350" patternUnits="userSpaceOnUse"><use xlink:href="#L1_92" x="-350" y="-350"/><use xlink:href="#L1_92" x="0" y="-350"/><use xlink:href="#L1_92" x="350" y="-350"/><use xlink:href="#L1_92" x="-350" y="0"/><use xlink:href="#L1_92" x="0" y="0"/><use xlink:href="#L1_92" x="350" y="0"/><use xlink:href="#L1_92" x="-350" y="350"/><use xlink:href="#L1_92" x="0" y="350"/><use xlink:href="#L1_92" x="350" y="350"/></pattern><rect x="0" y="0" width="100%" height="100%" fill="url(#pattern_L1_92)"/></g><g fi:class="KUsePattern"><pattern id="pattern_L1_93" width="350" height="350" patternUnits="userSpaceOnUse"><use xlink:href="#L1_93" x="-350" y="-350"/><use xlink:href="#L1_93" x="0" y="-350"/><use xlink:href="#L1_93" x="350" y="-350"/><use xlink:href="#L1_93" x="-350" y="0"/><use xlink:href="#L1_93" x="0" y="0"/><use xlink:href="#L1_93" x="350" y="0"/><use xlink:href="#L1_93" x="-350" y="350"/><use xlink:href="#L1_93" x="0" y="350"/><use xlink:href="#L1_93" x="350" y="350"/></pattern><rect x="0" y="0" width="100%" height="100%" fill="url(#pattern_L1_93)"/></g><g fi:class="KUsePattern"><pattern id="pattern_L1_94" width="350" height="350" patternUnits="userSpaceOnUse"><use xlink:href="#L1_94" x="-350" y="-350"/><use xlink:href="#L1_94" x="0" y="-350"/><use xlink:href="#L1_94" x="350" y="-350"/><use xlink:href="#L1_94" x="-350" y="0"/><use xlink:href="#L1_94" x="0" y="0"/><use xlink:href="#L1_94" x="350" y="0"/><use xlink:href="#L1_94" x="-350" y="350"/><use xlink:href="#L1_94" x="0" y="350"/><use xlink:href="#L1_94" x="350" y="350"/></pattern><rect x="0" y="0" width="100%" height="100%" fill="url(#pattern_L1_94)"/></g><g fi:class="KUsePattern"><pattern id="pattern_L1_95" width="350" height="350" patternUnits="userSpaceOnUse"><use xlink:href="#L1_95" x="-350" y="-350"/><use xlink:href="#L1_95" x="0" y="-350"/><use xlink:href="#L1_95" x="350" y="-350"/><use xlink:href="#L1_95" x="-350" y="0"/><use xlink:href="#L1_95" x="0" y="0"/><use xlink:href="#L1_95" x="350" y="0"/><use xlink:href="#L1_95" x="-350" y="350"/><use xlink:href="#L1_95" x="0" y="350"/><use xlink:href="#L1_95" x="350" y="350"/></pattern><rect x="0" y="0" width="100%" height="100%" fill="url(#pattern_L1_95)"/></g><g fi:class="KUsePattern"><pattern id="pattern_L1_96" width="350" height="350" patternUnits="userSpaceOnUse"><use xlink:href="#L1_96" x="-350" y="-350"/><use xlink:href="#L1_96" x="0" y="-350"/><use xlink:href="#L1_96" x="350" y="-350"/><use xlink:href="#L1_96" x="-350" y="0"/><use xlink:href="#L1_96" x="0" y="0"/><use xlink:href="#L1_96" x="350" y="0"/><use xlink:href="#L1_96" x="-350" y="350"/><use xlink:href="#L1_96" x="0" y="350"/><use xlink:href="#L1_96" x="350" y="350"/></pattern><rect x="0" y="0" width="100%" height="100%" fill="url(#pattern_L1_96)"/></g><g fi:class="KUsePattern"><pattern id="pattern_L1_97" width="350" height="350" patternUnits="userSpaceOnUse"><use xlink:href="#L1_97" x="-350" y="-350"/><use xlink:href="#L1_97" x="0" y="-350"/><use xlink:href="#L1_97" x="350" y="-350"/><use xlink:href="#L1_97" x="-350" y="0"/><use xlink:href="#L1_97" x="0" y="0"/><use xlink:href="#L1_97" x="350" y="0"/><use xlink:href="#L1_97" x="-350" y="350"/><use xlink:href="#L1_97" x="0" y="350"/><use xlink:href="#L1_97" x="350" y="350"/></pattern><rect x="0" y="0" width="100%" height="100%" fill="url(#pattern_L1_97)"/></g><g fi:class="KUsePattern"><pattern id="pattern_L1_98" width="350" height="350" patternUnits="userSpaceOnUse"><use xlink:href="#L1_98" x="-350" y="-350"/><use xlink:href="#L1_98" x="0" y="-350"/><use xlink:href="#L1_98" x="350" y="-350"/><use xlink:href="#L1_98" x="-350" y="0"/><use xlink:href="#L1_98" x="0" y="0"/><use xlink:href="#L1_98" x="350" y="0"/><use xlink:href="#L1_98" x="-350" y="350"/><use xlink:href="#L1_98" x="0" y="350"/><use xlink:href="#L1_98" x="350" y="350"/></pattern><rect x="0" y="0" width="100%" height="100%" fill="url(#pattern_L1_98)"/></g><g fi:class="KUsePattern"><pattern id="pattern_L1_99" width="350" height="350" patternUnits="userSpaceOnUse"><use xlink:href="#L1_99" x="-350" y="-350"/><use xlink:href="#L1_99" x="0" y="-350"/><use xlink:href="#L1_99" x="350" y="-350"/><use xlink:href="#L1_99" x="-350" y="0"/><use xlink:href="#L1_99" x="0" y="0"/><use xlink:href="#L1_99" x="350" y="0"/><use xlink:href="#L1_99" x="-350" y="350"/><use xlink:href="#L1_99" x="0" y="350"/><use xlink:href="#L1_99" x="350" y="350"/></pattern><rect x="0" y="0" width="100%" height="100%" fill="url(#pattern_L1_99)"/></g><g fi:class="KUsePattern"><pattern id="pattern_L1_100" width="350" height="350" patternUnits="userSpaceOnUse"><use xlink:href="#L1_100" x="-350" y="-350"/><use xlink:href="#L1_100" x="0" y="-350"/><use xlink:href="#L1_100" x="350" y="-350"/><use xlink:href="#L1_100" x="-350" y="0"/><use xlink:href="#L1_100" x="0" y="0"/><use xlink:href="#L1_100" x="350" y="0"/><use xlink:href="#L1_100" x="-350" y="350"/><use xlink:href="#L1_100" x="0" y="350"/><use xlink:href="#L1_100" x="350" y="350"/></pattern><rect x="0" y="0" width="100%" height="100%" fill="url(#pattern_L1_100)"/></g></svg>